HIERARCHY
ROOT hips
{
  OFFSET 0 10.6860622 2.3727825e-15
  CHANNELS 6 Xposition Yposition Zposition Yrotation Xrotation Zrotation
  JOINT leftUpperLeg
  {
    OFFSET 0.6642549969 -0.9402397400000004 0
    CHANNELS 3 Yrotation Xrotation Zrotation
    JOINT leftLowerLeg
    {
      OFFSET 0 -3.997221335632195 0
      CHANNELS 3 Yrotation Xrotation Zrotation
      JOINT leftFoot
      {
        OFFSET -0.13777839790000004 -4.6145792000000005 -0.22186036399999998
        CHANNELS 3 Yrotation Xrotation Zrotation
        JOINT leftToes
        {
          OFFSET -0.03777410834999995 -0.9130806927000008 0.85230013
          CHANNELS 3 Yrotation Xrotation Zrotation
          End Site
          {
            OFFSET -0.03777410834999995 -0.9130806927000008 0.85230013
          }
        }
      }
    }
  }
  JOINT rightUpperLeg
  {
    OFFSET -0.6642778626 -0.9402397400000004 0
    CHANNELS 3 Yrotation Xrotation Zrotation
    JOINT rightLowerLeg
    {
      OFFSET 0 -3.997221452859387 0
      CHANNELS 3 Yrotation Xrotation Zrotation
      JOINT rightFoot
      {
        OFFSET 0.1377926176 -4.6145792000000005 -0.22185782299999995
        CHANNELS 3 Yrotation Xrotation Zrotation
        JOINT rightToes
        {
          OFFSET 0.037780746850000047 -0.9130806927000008 0.85230167
          CHANNELS 3 Yrotation Xrotation Zrotation
          End Site
          {
            OFFSET 0.037780746850000047 -0.9130806927000008 0.85230167
          }
        }
      }
    }
  }
  JOINT spine
  {
    OFFSET 0 0.13988381660000015 0
    CHANNELS 3 Yrotation Xrotation Zrotation
    JOINT chest
    {
      OFFSET 0 0.6191039003973773 0
      CHANNELS 3 Yrotation Xrotation Zrotation
      JOINT upperChest
      {
        OFFSET 0 0.9855186130586943 0
        CHANNELS 3 Yrotation Xrotation Zrotation
        JOINT leftShoulder
        {
          OFFSET 0.1807663869 1.5087829790000005 0
          CHANNELS 3 Yrotation Xrotation Zrotation
          JOINT leftUpperArm
          {
            OFFSET 0.5985063006419806 0 0
            CHANNELS 3 Yrotation Xrotation Zrotation
            JOINT leftLowerArm
            {
              OFFSET 2.2993332369501065 0 0
              CHANNELS 3 Yrotation Xrotation Zrotation
              JOINT leftHand
              {
                OFFSET 2.395047042602395 0 0
                CHANNELS 3 Yrotation Xrotation Zrotation
                JOINT leftIndexProximal
                {
                  OFFSET 0.5766295810000004 0.04556643899499946 0.17265095988184
                  CHANNELS 3 Yrotation Xrotation Zrotation
                  JOINT leftIndexIntermediate
                  {
                    OFFSET 0.2957229000000008 -0.019352197700001517 -0.007932640616999987
                    CHANNELS 3 Yrotation Xrotation Zrotation
                    JOINT leftIndexDistal
                    {
                      OFFSET 0.19008243099999922 -0.012484908149998475 -0.002786250786000012
                      CHANNELS 3 Yrotation Xrotation Zrotation
                      End Site
                      {
                        OFFSET 0.19008243099999922 -0.012484908149998475 -0.002786250786000012
                      }
                    }
                  }
                }
                JOINT leftMiddleProximal
                {
                  OFFSET 0.5834975091000001 0.0524350405149987 0.02204081888183999
                  CHANNELS 3 Yrotation Xrotation Zrotation
                  JOINT leftMiddleIntermediate
                  {
                    OFFSET 0.33880573540000003 -0.019871473270000717 -0.00000971183179999946
                    CHANNELS 3 Yrotation Xrotation Zrotation
                    JOINT leftMiddleDistal
                    {
                      OFFSET 0.20676022730000088 -0.012221336379999448 0.0001471936708000235
                      CHANNELS 3 Yrotation Xrotation Zrotation
                      End Site
                      {
                        OFFSET 0.20676022730000088 -0.012221336379999448 0.0001471936708000235
                      }
                    }
                  }
                }
                JOINT leftLittleProximal
                {
                  OFFSET 0.5344154683999995 -0.012880921405001189 -0.24414037221816004
                  CHANNELS 3 Yrotation Xrotation Zrotation
                  JOINT leftLittleIntermediate
                  {
                    OFFSET 0.21758961730000093 -0.011650919939999227 0.011893592810000034
                    CHANNELS 3 Yrotation Xrotation Zrotation
                    JOINT leftLittleDistal
                    {
                      OFFSET 0.1475273964999999 -0.008152365682999818 0.006001092492999946
                      CHANNELS 3 Yrotation Xrotation Zrotation
                      End Site
                      {
                        OFFSET 0.1475273964999999 -0.008152365682999818 0.006001092492999946
                      }
                    }
                  }
                }
                JOINT leftRingProximal
                {
                  OFFSET 0.5799399463000003 0.026911854694997794 -0.12150566991816003
                  CHANNELS 3 Yrotation Xrotation Zrotation
                  JOINT leftRingIntermediate
                  {
                    OFFSET 0.26167887460000006 -0.013480186499999602 0.010996293000000053
                    CHANNELS 3 Yrotation Xrotation Zrotation
                    JOINT leftRingDistal
                    {
                      OFFSET 0.17667108799999987 -0.008990287899999228 0.0055541023999999065
                      CHANNELS 3 Yrotation Xrotation Zrotation
                      End Site
                      {
                        OFFSET 0.17667108799999987 -0.008990287899999228 0.0055541023999999065
                      }
                    }
                  }
                }
                JOINT leftThumbProximal
                {
                  OFFSET 0.11018806699999972 -0.09448718900500053 0.17047963138184
                  CHANNELS 3 Yrotation Xrotation Zrotation
                  JOINT leftThumbIntermediate
                  {
                    OFFSET 0.31062601459999983 -0.08126270900000132 0.15443142000000007
                    CHANNELS 3 Yrotation Xrotation Zrotation
                    JOINT leftThumbDistal
                    {
                      OFFSET 0.21627175790000086 -0.08833193599999878 0.018771167799999988
                      CHANNELS 3 Yrotation Xrotation Zrotation
                      End Site
                      {
                        OFFSET 0.21627175790000086 -0.08833193599999878 0.018771167799999988
                      }
                    }
                  }
                }
              }
            }
          }
        }
        JOINT neck
        {
          OFFSET 0 1.5463305265074576 0
          CHANNELS 3 Yrotation Xrotation Zrotation
          JOINT head
          {
            OFFSET 0 0.8456443600000344 0
            CHANNELS 3 Yrotation Xrotation Zrotation
            JOINT leftEye
            {
              OFFSET 0.30408573140000006 0.5104519199999995 0.1276382305
              CHANNELS 3 Yrotation Xrotation Zrotation
              End Site
              {
                OFFSET 0.30408573140000006 0.5104519199999995 0.1276382305
              }
            }
            JOINT rightEye
            {
              OFFSET -0.30409491089999996 0.5104519199999995 0.1276379445
              CHANNELS 3 Yrotation Xrotation Zrotation
              End Site
              {
                OFFSET -0.30409491089999996 0.5104519199999995 0.1276379445
              }
            }
            JOINT jaw
            {
              OFFSET -3.155239131000001e-7 -0.11984121820000082 0.60178107
              CHANNELS 3 Yrotation Xrotation Zrotation
              End Site
              {
                OFFSET -3.155239131000001e-7 -0.11984121820000082 0.60178107
              }
            }
          }
        }
        JOINT rightShoulder
        {
          OFFSET -0.1807303465 1.5087829790000005 0
          CHANNELS 3 Yrotation Xrotation Zrotation
          JOINT rightUpperArm
          {
            OFFSET -0.5985063796536958 0 0
            CHANNELS 3 Yrotation Xrotation Zrotation
            JOINT rightLowerArm
            {
              OFFSET -2.2993322059002854 0 0
              CHANNELS 3 Yrotation Xrotation Zrotation
              JOINT rightHand
              {
                OFFSET -2.395045314457259 0 0
                CHANNELS 3 Yrotation Xrotation Zrotation
                JOINT rightIndexProximal
                {
                  OFFSET -0.5764487688300002 0.0441371204405987 0.17361932004999997
                  CHANNELS 3 Yrotation Xrotation Zrotation
                  JOINT rightIndexIntermediate
                  {
                    OFFSET -0.29573011380000047 -0.01934826376999843 -0.007698921482999974
                    CHANNELS 3 Yrotation Xrotation Zrotation
                    JOINT rightIndexDistal
                    {
                      OFFSET -0.19008373999999884 -0.012503266380000655 -0.0026365778999999897
                      CHANNELS 3 Yrotation Xrotation Zrotation
                      End Site
                      {
                        OFFSET -0.19008373999999884 -0.012503266380000655 -0.0026365778999999897
                      }
                    }
                  }
                }
                JOINT rightMiddleProximal
                {
                  OFFSET -0.5834852037300005 0.05211639405060153 0.02307162440000001
                  CHANNELS 3 Yrotation Xrotation Zrotation
                  JOINT rightMiddleIntermediate
                  {
                    OFFSET -0.33880114510000003 -0.019952774050000954 0.0002455003561999819
                    CHANNELS 3 Yrotation Xrotation Zrotation
                    JOINT rightMiddleDistal
                    {
                      OFFSET -0.20675694929999955 -0.012273788999999091 0.00030209124000002766
                      CHANNELS 3 Yrotation Xrotation Zrotation
                      End Site
                      {
                        OFFSET -0.20675694929999955 -0.012273788999999091 0.00030209124000002766
                      }
                    }
                  }
                }
                JOINT rightLittleProximal
                {
                  OFFSET -0.5346811737299992 -0.011214256288399227 -0.24363941305000003
                  CHANNELS 3 Yrotation Xrotation Zrotation
                  JOINT rightLittleIntermediate
                  {
                    OFFSET -0.21757715980000092 -0.011771559690000988 0.01201554387
                    CHANNELS 3 Yrotation Xrotation Zrotation
                    JOINT rightLittleDistal
                    {
                      OFFSET -0.1475201849000004 -0.00822055339600003 0.006082065407000015
                      CHANNELS 3 Yrotation Xrotation Zrotation
                      End Site
                      {
                        OFFSET -0.1475201849000004 -0.00822055339600003 0.006082065407000015
                      }
                    }
                  }
                }
                JOINT rightRingProximal
                {
                  OFFSET -0.5800810755299999 0.027657985680600072 -0.12066365025000003
                  CHANNELS 3 Yrotation Xrotation Zrotation
                  JOINT rightRingIntermediate
                  {
                    OFFSET -0.26166445029999974 -0.013623118409999302 0.011164098990000045
                    CHANNELS 3 Yrotation Xrotation Zrotation
                    JOINT rightRingDistal
                    {
                      OFFSET -0.17666387530000027 -0.009072900100000503 0.005668185599999959
                      CHANNELS 3 Yrotation Xrotation Zrotation
                      End Site
                      {
                        OFFSET -0.17666387530000027 -0.009072900100000503 0.005668185599999959
                      }
                    }
                  }
                }
                JOINT rightThumbProximal
                {
                  OFFSET -0.10997596379000074 -0.09577489355940072 0.16989765924999997
                  CHANNELS 3 Yrotation Xrotation Zrotation
                  JOINT rightThumbIntermediate
                  {
                    OFFSET -0.31036620999999986 -0.08229339117999834 0.15440884469999996
                    CHANNELS 3 Yrotation Xrotation Zrotation
                    JOINT rightThumbDistal
                    {
                      OFFSET -0.21631306399999906 -0.08825326400000111 0.018656797720000014
                      CHANNELS 3 Yrotation Xrotation Zrotation
                      End Site
                      {
                        OFFSET -0.21631306399999906 -0.08825326400000111 0.018656797720000014
                      }
                    }
                  }
                }
              }
            }
          }
        }
      }
    }
  }
}
MOTION
Frames: 8
Frame Time: 0.03333333333333333
0 -4.9201188069741635 1.268229973718535 180 6.4641401543429104 -7.950047843466244e-16 0.35210018808241333 -16.38135713550107 3.3477006893692627 -3.6688768249061754 17.012602097938913 -0.5075827650484183 5.27654550963898 -10.086403457763861 -8.177569460703568 0 0 0 -0.5712072391524599 -18.650788079887352 -2.744922240208934 3.8144156944320198 21.62363001878801 1.570417166491771 -5.030472142636488 -12.974764317249708 7.05900108144421 0 0 0 -2.5682232487931422 -27.215534003553206 -2.086537244103521 -0.4957413174930022 19.2770286012508 1.7746888844671584 0 0 0 1.5859916290413132 -7.515256684420847 -25.245942620223634 -53.79568401227485 -40.46670107744856 -26.61996650367697 -26.837828637710903 35.967232129614764 -59.2444382612697 -8.673527273801467 -0.5230149652573318 -31.663117208689854 0 0 0 0 0 0 0 0 0 0 0 0 0 0 0 0 0 0 0 0 0 0 0 0 0 0 0 0 0 0 0 0 0 0 0 0 0 0 0 0 0 0 0 0 0 -0.00233786434424303 44.05834022466645 8.996972216716511 0 -29.95571550604311 0 0 0 0 0 0 0 0 0 0 -4.342693351366926 -8.697581775520101 -8.120128483321874 84.06830293545111 -50.66996435285042 12.858207800821397 31.744994683849942 -38.075427493362895 52.25703597794219 15.276799214658055 -17.12143220168695 19.432125557479175 0 0 0 0 0 0 0 0 0 0 0 0 0 0 0 0 0 0 0 0 0 0 0 0 0 0 0 0 0 0 0 0 0 0 0 0 0 0 0 0 0 0 0 0 0
0 -4.9201188069741635 1.2755393688352847 180 6.697347463527948 -8.239445558380424e-16 0.049118490638100226 -16.679766945767895 3.3901505787656614 -3.6688768249061754 17.012602097938913 -0.5075827650484183 5.571969238502474 -10.06739898767154 -8.226651316071175 0 0 0 -0.26610844254977883 -18.94678301400095 -2.7891894083489603 3.8144156944320198 21.62363001878801 1.570417166491771 -5.330140846907551 -12.948435878835346 7.11844368670254 0 0 0 -2.5682232487931422 -27.215534003553206 -2.086537244103521 -0.49504224224931076 19.043755491746683 1.776809558671964 0 0 0 1.7506972103688234 -7.508772114844527 -25.21570361168964 -53.89784114920215 -40.515625676039214 -26.63930071152248 -26.837828637710903 35.967232129614764 -59.2444382612697 -8.673527273801467 -0.5230149652573318 -31.663117208689854 0 0 0 0 0 0 0 0 0 0 0 0 0 0 0 0 0 0 0 0 0 0 0 0 0 0 0 0 0 0 0 0 0 0 0 0 0 0 0 0 0 0 0 0 0 -0.002285642819925424 43.82517500676866 8.996995874107657 0 -28.928232924563908 0 0 0 0 0 0 0 0 0 0 -4.725200874418746 -8.856282718089595 -8.068650682147002 84.06830293545111 -50.66996435285042 12.858207800821397 31.744994683849942 -38.075427493362895 52.25703597794219 15.028208413074708 -17.390654167424692 20.336936547229705 0 0 0 0 0 0 0 0 0 0 0 0 0 0 0 0 0 0 0 0 0 0 0 0 0 0 0 0 0 0 0 0 0 0 0 0 0 0 0 0 0 0 0 0 0
0 -4.9201188069741635 1.2828487639520343 180 6.930554911112045 -8.529120999115387e-16 -0.2545717529449456 -16.97795580613944 3.4343169458997744 -3.6688768249061754 17.012602097938913 -0.5075827650484183 5.8673594476951285 -10.04814505238751 -8.275629750809182 0 0 0 0.03977840558162734 -19.242549639099337 -2.83520455445613 3.8144156944320198 21.62363001878801 1.570417166491771 -5.6297486746981225 -12.921804512887329 7.177738500821266 0 0 0 -2.5682232487931422 -27.215534003553206 -2.086537244103521 -0.49435327085799474 18.81048145066419 1.778924176940887 0 0 0 1.9154036045965313 -7.5023737565452535 -25.18544781549174 -54.00005101795966 -40.56457700996427 -26.65853459232161 -26.837828637710903 35.967232129614764 -59.2444382612697 -8.673527273801467 -0.5230149652573318 -31.663117208689854 0 0 0 0 0 0 0 0 0 0 0 0 0 0 0 0 0 0 0 0 0 0 0 0 0 0 0 0 0 0 0 0 0 0 0 0 0 0 0 0 0 0 0 0 0 -0.0022337585115375716 43.59200694163231 8.997019965922606 0 -27.90074941010295 0 0 0 0 0 0 0 0 0 0 -5.108018997954017 -9.014640704079834 -8.01607872295065 84.06830293545111 -50.66996435285042 12.858207800821397 31.744994683849942 -38.075427493362895 52.25703597794219 14.774820654112602 -17.656088655978554 21.244299548626614 0 0 0 0 0 0 0 0 0 0 0 0 0 0 0 0 0 0 0 0 0 0 0 0 0 0 0 0 0 0 0 0 0 0 0 0 0 0 0 0 0 0 0 0 0
0 -4.9201188069741635 1.2974678225778047 180 7.397064039411612 -9.109457776106335e-16 -0.8645167615853802 -17.573989040320924 3.5278933666083727 -3.6688768249061754 17.012602097938913 -0.5075827650484183 6.458204299361288 -10.008882020606762 -8.373297779697618 0 0 0 0.6543563304444862 -19.833707838309774 -2.932579274092057 3.8144156944320198 21.62363001878801 1.570417166491771 -6.228956494491783 -12.867622854844544 7.295910546328434 0 0 0 -2.5682232487931422 -27.215534003553206 -2.086537244103521 -0.49300537451853055 18.343852205957106 1.78313677655436 0 0 0 2.2448508347498377 -7.489830491571313 -25.124870624100787 -54.20463108221685 -40.662551257845585 -26.696712805959518 -26.837828637710903 35.967232129614764 -59.2444382612697 -8.673527273801467 -0.5230149652573318 -31.663117208689854 0 0 0 0 0 0 0 0 0 0 0 0 0 0 0 0 0 0 0 0 0 0 0 0 0 0 0 0 0 0 0 0 0 0 0 0 0 0 0 0 0 0 0 0 0 -0.0021300444753039106 43.12559561753091 8.997069283584215 0 -25.838415610311745 0 0 0 0 0 0 0 0 0 0 -5.87504297039695 -9.330475336671821 -7.907593009455768 84.06830293545111 -50.66996435285042 12.858207800821397 31.744994683849942 -38.075427493362895 52.25703597794219 14.252331605087196 -18.1767067183232 23.07180633038654 0 0 0 0 0 0 0 0 0 0 0 0 0 0 0 0 0 0 0 0 0 0 0 0 0 0 0 0 0 0 0 0 0 0 0 0 0 0 0 0 0 0 0 0 0
0 -4.9201188069741635 1.3047772176945545 180 7.630355467089751 -9.400128084437393e-16 -1.170778344494207 -17.871782091785224 3.5773192201167032 -3.6688768249061754 17.012602097938913 -0.5075827650484183 6.753642409068027 -9.988874744830715 -8.42198421217966 0 0 0 0.9630566348023939 -20.129050173410935 -2.983959282958379 3.814415450044145 21.62363001878801 1.570417166491771 -6.528538575870365 -12.8400727495314 7.354780260964814 0 0 0 -2.5682232487931422 -27.215534003553206 -2.086537244103521 -0.49234633224224417 18.11050208296746 1.7852347852067714 0 0 0 2.4095885737116527 -7.483688160771232 -25.094555318254358 -54.30700386792879 -40.71158335941405 -26.715650817129465 -26.837832425212202 35.967232129614764 -59.244440074313296 -8.673527273801467 -0.5230149652573318 -31.663117208689854 0 0 0 0 0 0 0 0 0 0 0 0 0 0 0 0 0 0 0 0 0 0 0 0 0 0 0 0 0 0 0 0 0 0 0 0 0 0 0 0 0 0 0 0 0 -0.002078883327436461 42.892340602669904 8.99709105010935 0 -24.80420720191902 0 0 0 0 0 0 0 0 0 0 -6.259221785940134 -9.487918974917646 -7.8516816045686895 84.06830293545111 -50.66996435285042 12.858207800821397 31.744994683849942 -38.075427493362895 52.25703597794219 13.983390493625595 -18.431570291260364 23.991548580905608 0 0 0 0 0 0 0 0 0 0 0 0 0 0 0 0 0 0 0 0 0 0 0 0 0 0 0 0 0 0 0 0 0 0 0 0 0 0 0 0 0 0 0 0 0
0 -4.9201188069741635 1.3120866128113045 180 7.863646662214313 -9.6911162032662e-16 -1.477828208823472 -18.169318458045115 3.628503513282332 -3.6688768249061754 17.012602097938913 -0.5075827650484183 7.049044236896046 -9.968620777159348 -8.470562766091364 0 0 0 1.2726276013573306 -20.4241279784404 -3.0371345602945783 3.8144156791372437 21.62362818197419 1.5704169510563641 -6.828058444847741 -12.81222271466759 7.413495402004525 0 0 0 -2.5682232487931422 -27.215534003553206 -2.086537244103521 -0.49169712759673984 17.877153772573074 1.7873271349801076 0 0 0 2.5743269154874353 -7.4776328872215085 -25.064221650482498 -54.40942809570802 -40.76063806777519 -26.734485869318863 -26.837832425212202 35.967232129614764 -59.24444188735698 -8.673527273801467 -0.5230149652573318 -31.663117208689854 0 0 0 0 0 0 0 0 0 0 0 0 0 0 0 0 0 0 0 0 0 0 0 0 0 0 0 0 0 0 0 0 0 0 0 0 0 0 0 0 0 0 0 0 0 -0.002028036927411742 42.65908676233851 8.997112422409247 0 -23.769999311284383 0 0 0 0 0 0 0 0 0 0 -6.643733601783345 -9.644989820125643 -7.794674551098529 84.06830293545111 -50.66996435285042 12.858207800821397 31.744994683849942 -38.075427493362895 52.25703597794219 13.70976815884248 -18.68229686822876 24.913906408886863 0 0 0 0 0 0 0 0 0 0 0 0 0 0 0 0 0 0 0 0 0 0 0 0 0 0 0 0 0 0 0 0 0 0 0 0 0 0 0 0 0 0 0 0 0
0 -4.9201188069741635 1.3267054030448038 180 8.330291302236155 -1.027415973361265e-15 -2.094605568437268 -18.763812196819483 3.736230379837952 -3.6688768249061754 17.012602097938913 -0.5075827650484183 7.639851580090137 -9.927367739960484 -8.567408602730993 0 0 0 1.8946969226116337 -21.0136653252747 -3.1489599772563586 3.8144156944320198 21.62363001878801 1.570417166491771 -7.427022182808058 -12.75561885191953 7.530476532144023 0 0 0 -2.5682232487931422 -27.215534003553206 -2.086537244103521 -0.49042814109397265 17.41039701727886 1.7914959196671867 0 0 0 2.9038294433212624 -7.465780913943555 -25.00349912231164 -54.61448504861694 -40.85886080335022 -26.77184452275541 -26.837832425212202 35.967232129614764 -59.24444188735698 -8.673527273801467 -0.5230149652573318 -31.663117208689854 0 0 0 0 0 0 0 0 0 0 0 0 0 0 0 0 0 0 0 0 0 0 0 0 0 0 0 0 0 0 0 0 0 0 0 0 0 0 0 0 0 0 0 0 0 -0.0019263482149592017 42.19255339031234 8.99715855887048 0 -21.696832749178387 0 0 0 0 0 0 0 0 0 0 -7.414055711620139 -9.958094655149981 -7.677333129178687 84.06830293545111 -50.66996435285042 12.858207800821397 31.744994683849942 -38.075427493362895 52.25703597794219 13.14764787117372 -19.17187429612714 26.769777758475954 0 0 0 0 0 0 0 0 0 0 0 0 0 0 0 0 0 0 0 0 0 0 0 0 0 0 0 0 0 0 0 0 0 0 0 0 0 0 0 0 0 0 0 0 0
0 -4.9201188069741635 1.3340147981615535 180 8.56363616239983 -1.056622766164663e-15 -2.404339857692491 -19.060714962356045 3.79278959817903 -3.6688768249061754 17.012602097938913 -0.5075827650484183 7.935236873307042 -9.906370492558246 -8.61566758161859 0 0 0 2.2072055996842797 -21.308077633052992 -3.2076306152606513 3.8144156944320198 21.62363001878801 1.570417166491771 -7.726447317073418 -12.726866963327574 7.588735012516316 0 0 0 -2.5682232487931422 -27.215534003553206 -2.086537244103521 -0.4898077484835843 17.177000663470842 1.7935726014286013 0 0 0 3.068589533222425 -7.459985929197504 -24.97311176962875 -54.71708816394949 -40.9080019583621 -26.790373781756973 -26.83782675519017 35.967232129614764 -59.244436103497804 -8.673527273801467 -0.5230149652573318 -31.663117208689854 0 0 0 0 0 0 0 0 0 0 0 0 0 0 0 0 0 0 0 0 0 0 0 0 0 0 0 0 0 0 0 0 0 0 0 0 0 0 0 0 0 0 0 0 0 -0.0018768235194556847 41.95926177987173 8.99718016281417 0 -20.658542713287805 0 0 0 0 0 0 0 0 0 0 -7.799839014723245 -10.11409791671826 -7.617004806323733 84.06830293545111 -50.66996435285042 12.858207800821397 31.744994683849942 -38.075427493362895 52.25703597794219 12.859369834898896 -19.410427649180264 27.702835674634404 0 0 0 0 0 0 0 0 0 0 0 0 0 0 0 0 0 0 0 0 0 0 0 0 0 0 0 0 0 0 0 0 0 0 0 0 0 0 0 0 0 0 0 0 0
